<?xml version="1.0" encoding="UTF-8" standalone="no"?>
<svg
   version="1.1"
   id="Layer_1"
   x="0px"
   y="0px"
   width="100%"
   viewBox="0 0 1254 1254"
   enable-background="new 0 0 1254 1254"
   xml:space="preserve"
   xmlns="http://www.w3.org/2000/svg"
   xmlns:svg="http://www.w3.org/2000/svg"><defs
   id="defs39" />

<path
   fill="#FFFFFF"
   opacity="1.000000"
   stroke="none"
   d=" M370.042969,684.000000   C423.839142,684.000000 477.142548,684.000000 530.772156,684.000000   C531.051575,692.221680 535.781677,698.325134 540.163391,704.390869   C546.938477,713.769897 554.371460,722.670532 561.357056,731.901489   C569.071411,742.095398 576.575928,752.447937 584.210510,762.702576   C589.254395,769.477417 594.138000,776.389221 599.494202,782.910461   C611.795898,797.887939 644.109924,798.397034 656.491760,782.061707   C663.508240,772.804932 670.827698,763.776917 677.799072,754.486938   C686.306641,743.149841 694.533508,731.602478 702.995544,720.230713   C708.139648,713.317810 713.833435,706.790527 718.640137,699.658569   C721.728210,695.076599 723.652588,689.710266 726.332092,684.216858   C783.431641,684.216858 841.513000,684.216858 900.000000,684.216858   C900.000000,686.050415 900.000000,687.673584 900.000000,689.296753   C900.000000,751.780884 899.966614,814.265015 900.075500,876.748962   C900.082703,880.894836 898.831726,883.917175 895.861206,886.727905   C890.054565,892.222534 884.795471,898.328369 878.730835,903.502869   C875.992615,905.839233 871.869995,907.814026 868.372620,907.818542   C707.747070,908.027527 547.121155,907.992981 386.495300,908.035217   C381.872406,908.036377 378.832611,905.917175 375.790802,902.612427   C371.058868,897.471436 365.732849,892.870911 360.585571,888.120483   C356.586884,884.430054 354.871704,880.175842 354.888153,874.523438   C355.066986,813.039551 354.999420,751.554993 355.000824,690.070618   C355.000977,683.693298 355.005035,683.728271 361.553253,683.982361   C364.215149,684.085693 366.884369,683.999817 370.042969,684.000000  z"
   id="path2" />
<path
   fill="#FFFFFF"
   opacity="1.000000"
   stroke="none"
   d=" M889.614014,931.880493   C898.061523,923.464111 906.210693,915.278076 914.391113,907.123413   C917.134094,904.389099 919.614380,901.192993 922.820618,899.166565   C927.999084,895.893677 929.104065,891.536255 929.091492,885.803955   C928.947632,820.307312 929.056946,754.810120 928.887756,689.313599   C928.874756,684.280029 930.145203,682.817688 935.259888,682.878845   C958.422119,683.155823 981.589783,683.049561 1004.755127,682.974304   C1013.365479,682.946350 1012.820801,684.727173 1013.886841,691.738403   C1014.506042,695.810669 1014.000000,700.054199 1014.000000,704.220642   C1014.000061,766.551086 1014.022766,828.881531 1013.931580,891.211792   C1013.927124,894.280273 1014.761963,896.407043 1016.956238,898.561279   C1021.429565,902.952942 1025.859497,907.465698 1029.677979,912.414124   C1031.520508,914.801758 1032.833252,918.281433 1032.859985,921.280273   C1033.100220,948.110168 1032.877808,974.944153 1033.088623,1001.774597   C1033.139282,1008.226746 1029.108643,1012.136963 1022.701843,1012.133179   C759.547485,1011.977478 496.393097,1012.000122 233.238693,1011.999390   C225.376556,1011.999329 223.001144,1009.615112 223.000641,1001.726562   C222.998962,975.727783 223.253754,949.724731 222.819016,923.733276   C222.712265,917.352173 224.795654,912.797180 228.942200,908.527161   C232.616821,904.742920 236.386673,900.986084 239.532761,896.781860   C241.046585,894.758911 241.896286,891.734009 241.901154,889.160645   C242.026321,822.997314 242.048691,756.833557 241.928299,690.670166   C241.915588,683.682495 243.360291,682.891785 249.455719,682.933716   C273.120148,683.096558 296.787262,683.105713 320.451141,682.904968   C324.838684,682.867676 326.101288,684.104065 326.092316,688.523926   C325.958679,754.353943 326.082275,820.184570 325.868591,886.014160   C325.847992,892.370972 328.600128,896.438904 332.830383,900.384399   C340.846069,907.860535 348.661041,915.551514 356.625610,923.083191   C360.135284,926.402161 363.577393,929.874634 367.497498,932.644409   C369.592438,934.124512 372.638184,934.905945 375.255463,934.907532   C543.414246,935.010132 711.573059,935.015930 879.731750,934.880127   C882.931213,934.877563 886.129211,933.082092 889.614014,931.880493  z"
   id="path3" />
<path
   fill="#FFFFFF"
   opacity="1.000000"
   stroke="none"
   d=" M795.000000,552.000000   C767.672363,552.000000 740.842285,551.813354 714.019226,552.163696   C708.897095,552.230530 705.874817,550.428162 703.181824,546.613464   C688.697205,526.095764 674.667053,505.224762 659.375122,485.324677   C652.719421,476.663422 642.863892,471.484619 631.106995,470.908051   C616.874084,470.210083 604.948425,474.626343 595.965393,485.688568   C590.351074,492.602417 585.442749,500.091492 580.252197,507.347137   C570.352417,521.185486 560.550171,535.094971 550.484863,548.811523   C549.422607,550.259094 546.900879,550.683167 545.002319,551.448303   C544.131409,551.799316 543.129944,551.977783 542.187561,551.978149   C482.037109,552.002258 421.886627,551.999878 361.332916,551.999878   C361.218170,550.679382 360.990601,549.422058 361.018311,548.170471   C361.322693,534.415710 360.975525,520.602722 362.147614,506.920471   C364.422333,480.367462 369.897339,454.363770 379.348450,429.398254   C387.720337,407.283539 398.943268,386.591370 413.625763,367.974884   C423.069702,356.000580 434.479523,346.011169 447.095856,337.441406   C462.608826,326.904083 479.640198,319.929138 497.961182,316.074738   C499.399506,315.772125 500.952057,316.001556 502.451508,316.001526   C584.434143,315.999817 666.416992,316.103973 748.399048,315.891144   C761.116089,315.858124 772.783142,319.268280 784.175110,324.081696   C804.827759,332.808075 822.358276,346.108032 837.123230,362.789734   C852.711487,380.401794 864.075439,400.701263 873.060181,422.429932   C881.000854,441.633789 885.832397,461.690826 889.791748,481.941772   C891.761108,492.014313 892.293213,502.409271 892.917969,512.692261   C893.610474,524.091492 893.543396,535.535095 894.067200,546.947388   C894.249390,550.914734 892.969421,552.101013 888.978760,552.081970   C857.819702,551.933777 826.659729,552.000000 795.000000,552.000000  z"
   id="path4" />
<path
   fill="#FFFFFF"
   opacity="1.000000"
   stroke="none"
   d=" M928.734070,513.433838   C927.679138,505.717438 927.138062,498.370239 925.937195,491.132568   C923.977478,479.321411 921.918518,467.507690 919.308777,455.827484   C914.183594,432.889221 905.420166,411.223938 894.694031,390.398499   C884.558960,370.720612 871.151184,353.270538 854.747864,338.501038   C841.084167,326.198364 825.533813,316.576782 807.140625,312.589905   C805.276978,312.185944 803.381348,311.929596 801.533203,311.000000   C803.284424,311.000000 805.035583,311.000000 806.786743,311.000000   C836.771423,311.000000 866.756226,310.951813 896.740723,311.022766   C909.424377,311.052795 921.365906,314.568207 932.931030,319.459686   C952.653687,327.801361 969.672424,340.185974 983.500122,356.331665   C992.629639,366.991638 1001.075134,378.544342 1007.936768,390.759094   C1015.874756,404.889862 1022.772339,419.818359 1028.198364,435.084106   C1033.138794,448.983856 1035.800049,463.734863 1038.935425,478.225433   C1043.693604,500.216095 1044.311646,522.577209 1044.042236,544.989258   C1043.989868,549.343140 1042.457520,551.987549 1037.832642,551.989685   C1002.184204,552.006165 966.535706,551.996521 930.887268,551.983765   C930.419495,551.983582 929.951660,551.836792 928.951721,551.669312   C928.951721,539.059814 928.951721,526.456055 928.734070,513.433838  z"
   id="path5" />
<path
   fill="#FFFFFF"
   opacity="1.000000"
   stroke="none"
   d=" M426.000000,311.000000   C435.487244,311.000000 444.474518,311.000000 453.461761,311.000000   C437.309692,314.614746 422.932983,321.537598 409.733734,331.532196   C395.780426,342.097839 384.110840,354.629852 374.020721,368.792603   C359.466614,389.221069 349.089752,411.826141 341.494354,435.504822   C336.386719,451.427765 333.374207,468.067627 330.130188,484.525848   C328.336060,493.628235 327.476837,502.997559 327.124939,512.281738   C326.630615,525.322327 327.000000,538.395630 327.000000,552.000000   C324.113220,552.000000 322.509033,552.000000 320.904846,552.000000   C287.245575,552.000000 253.586319,552.001892 219.927048,551.998474   C212.693878,551.997742 210.790863,550.280640 211.045898,542.991516   C211.559647,528.309143 211.624222,513.560425 213.171036,498.976685   C215.476608,477.239136 219.794647,455.816315 226.960541,435.066620   C236.001404,408.887787 248.358292,384.410339 265.824036,362.857941   C279.210999,346.338684 295.185791,332.508209 314.391479,323.051453   C329.791290,315.468658 345.961700,310.580658 363.515564,310.909393   C384.170349,311.296143 404.837952,311.000000 426.000000,311.000000  z"
   id="path6" />
<path
   fill="#FFFFFF"
   opacity="1.000000"
   stroke="none"
   d=" M430.000000,657.000000   C368.190521,657.000000 306.880737,656.922363 245.572052,657.143005   C240.504105,657.161255 236.471130,655.706177 233.195099,652.504822   C226.336075,645.802185 219.742966,638.811401 213.342911,631.668091   C211.991653,630.159973 211.367691,627.487488 211.376938,625.355713   C211.440186,610.775208 212.025574,596.192627 211.847870,581.617981   C211.790558,576.916382 213.931351,575.606873 217.651672,575.038391   C218.791809,574.864075 219.979950,575.000488 221.146118,575.000488   C323.106476,574.999939 425.066803,575.000000 527.027161,575.000000   C528.639832,575.000000 530.252502,575.000000 530.928528,575.000000   C530.609070,585.666016 530.128418,595.832214 530.039795,606.001831   C529.893372,622.803955 530.000000,639.608337 530.000000,657.000000   C496.668854,657.000000 463.584442,657.000000 430.000000,657.000000  z"
   id="path7" />
<path
   fill="#FFFFFF"
   opacity="1.000000"
   stroke="none"
   d=" M775.000000,657.000000   C758.526367,657.000000 742.552673,657.000000 726.250793,657.000000   C726.158508,655.325806 726.011292,653.887573 726.010193,652.449280   C725.994995,632.784790 726.156372,613.118347 725.905273,593.457092   C725.829346,587.514465 724.623901,581.586243 723.888489,575.243225   C724.502197,575.199036 725.885864,575.012573 727.269592,575.012390   C830.424622,574.998840 933.579712,574.998779 1036.734741,575.003845   C1041.776245,575.004089 1043.947144,576.999390 1043.973633,582.045715   C1044.049072,596.377075 1044.276001,610.718262 1043.796021,625.033875   C1043.683228,628.397461 1041.689575,632.267944 1039.392334,634.875488   C1033.786011,641.238892 1027.393677,646.902466 1021.524841,653.045532   C1018.825317,655.871155 1015.928772,657.073059 1011.973633,657.068420   C933.149109,656.976807 854.324585,657.000000 775.000000,657.000000  z"
   id="path8" />
<path
   fill="#FFFFFF"
   opacity="1.000000"
   stroke="none"
   d=" M543.012939,583.446167   C549.981323,572.884521 556.851990,562.682007 563.918945,552.617188   C572.180176,540.851440 580.632874,529.220398 588.963440,517.503113   C594.385986,509.876038 599.550842,502.057892 605.176880,494.585693   C610.527222,487.479523 623.500854,481.068909 637.000671,485.334198   C643.054321,487.246826 647.579651,490.752350 651.083679,495.665466   C661.177429,509.817993 670.894409,524.242004 681.123352,538.294556   C688.344666,548.215271 696.431396,557.507019 703.627930,567.444519   C710.111084,576.396912 714.898499,586.050354 714.096436,597.793274   C713.318604,609.182617 713.062012,620.626221 713.070618,632.045654   C713.080750,645.444458 713.777649,658.841675 713.879333,672.241821   C713.942383,680.550964 711.542908,687.921936 706.075317,694.681213   C697.098206,705.779236 688.974792,717.566223 680.444214,729.027588   C674.380859,737.174133 668.172302,745.213379 662.157288,753.395081   C658.214478,758.758179 654.689331,764.434631 650.634521,769.707336   C646.152710,775.535278 639.921143,778.555481 632.748962,780.053894   C625.192505,781.632629 618.432373,779.332214 611.859863,776.254578   C609.682922,775.235107 607.628967,773.402832 606.192078,771.447449   C599.661438,762.560425 593.428467,753.455383 586.977234,744.508972   C581.060669,736.304138 575.009827,728.196167 569.001709,720.057556   C566.493713,716.660095 563.968933,713.274414 561.406494,709.917969   C556.985229,704.127014 552.675110,698.242188 548.042847,692.623962   C543.905579,687.606201 542.089722,681.810669 542.059326,675.564209   C541.923035,647.574951 541.973877,619.584656 542.043640,591.594910   C542.050049,589.017883 542.668030,586.442383 543.012939,583.446167  M623.197632,492.293396   C619.329224,494.499237 614.423645,495.857697 611.794189,499.075836   C604.948975,507.453491 599.153748,516.683716 592.846436,525.507263   C580.872314,542.258301 568.888489,559.002991 556.791687,575.665344   C552.403259,581.710083 549.685791,587.842834 549.821594,595.768311   C550.286743,622.910583 549.924866,650.066223 550.108643,677.215271   C550.128479,680.141418 550.965210,683.532532 552.600281,685.892212   C558.330566,694.162048 564.592896,702.062317 570.622742,710.125793   C583.750671,727.681213 597.236816,744.985535 609.846191,762.906311   C618.474304,775.168823 637.403931,776.752808 645.335022,763.305115   C647.468628,759.687439 650.039307,756.311340 652.577332,752.951172   C668.247681,732.205383 684.042725,711.553040 699.600098,690.723145   C702.519348,686.814514 706.077087,683.127075 706.054321,677.504333   C705.937256,648.522339 706.059448,619.539307 705.903748,590.557617   C705.888855,587.794067 705.213806,584.559998 703.677612,582.359436   C696.435791,571.985352 688.671570,561.977844 681.310303,551.684692   C670.099548,536.008850 658.682129,520.458252 648.109314,504.357513   C642.145996,495.276245 634.369263,491.611664 623.197632,492.293396  z"
   id="path9" />






























<path
   class="st7"
   d="m 626.99865,714.59394 -61.7649,-39.16489 61.76358,80.69175 z"
   id="path8-3"
   style="fill:#22697d;stroke-width:4.6771" /><path
   class="st9"
   d="m 565.2185,675.40357 -0.84865,-84.29409 30.72501,18.43601 z"
   id="path10-2"
   style="fill:#379b8a;fill-opacity:1;stroke-width:4.6771" /><path
   class="st9"
   d="m 660.67444,608.80189 28.68527,-17.57167 0.0172,85.04313 z"
   id="path10"
   style="fill:#3aa6ae;stroke-width:4.6771" /><path
   class="st19"
   d="m 627.01316,714.59721 33.66146,-105.7659 28.69983,67.43654 z"
   id="path20"
   style="fill:#44b4b7;fill-opacity:1;stroke-width:4.6771" /><path
   class="st20"
   d="M 627.00213,714.63615 594.97852,609.545 660.6671,608.83146 Z"
   id="path21"
   style="fill:#6dd0e0;fill-opacity:1;stroke-width:4.6771" /><path
   class="st0"
   d="m 627.12215,506.12828 33.54089,102.70675 -65.68728,0.70809 z"
   id="path1-6"
   style="fill:#20acd9;stroke-width:0.988182" /><path
   class="st0"
   d="M 627.04318,506.28223 594.98121,609.54367 564.36049,591.11554 Z"
   id="path1-1"
   style="fill:#2a8ece;fill-opacity:1;stroke-width:0.738075" /><path
   class="st2"
   d="m 627.12024,506.10572 33.52686,102.73046 28.73928,-17.61852 z"
   id="path3-9"
   style="fill:#259ad2;fill-opacity:1;stroke-width:0.711974" /><path
   class="st19"
   d="m 564.69567,674.89532 29.89368,-65.92619 31.89201,105.10748 z"
   id="path20-7"
   style="fill:#67c0b6;fill-opacity:1;stroke-width:4.6771" /><path
   class="st7"
   d="m 626.95322,714.59391 62.34767,-38.38961 -62.34633,79.91647 z"
   id="path2-4"
   style="fill:#3a9ab1;fill-opacity:1;stroke-width:4.6771" /></svg>
